<svg version="1.1" xmlns="http://www.w3.org/2000/svg" xmlns:xlink="http://www.w3.org/1999/xlink" width="1791" height="979" viewBox="0 0 1791 979"><defs/><g transform="matrix(1,0,0,1,0,0)"><g><g><g><path fill="none" stroke="#d3d3d3" paint-order="fill stroke markers" d=" M 0 0 L 1200 0" stroke-miterlimit="10" stroke-opacity="0.8" stroke-dasharray="5"/></g><g><path fill="none" stroke="#d3d3d3" paint-order="fill stroke markers" d=" M 0 0 L 0 800" stroke-miterlimit="10" stroke-opacity="0.8" stroke-dasharray="5"/></g></g><g id="_CA748879-9C05-4758-B221-5F3CBC18145A" bpmn2nodeid="_CA748879-9C05-4758-B221-5F3CBC18145A" transform="matrix(1,0,0,1,307,23)"><g><path fill="none" stroke="none"/></g><g transform="matrix(1,0,0,1,0,0)"><path fill="#f2f2f2" stroke="none" id="_CA748879-9C05-4758-B221-5F3CBC18145A?shapeType=BACKGROUND" paint-order="stroke fill markers" d=" M 0 0 L 1434 0 L 1434 628 L 0 628 L 0 0 Z Z"/></g><g transform="matrix(1,0,0,1,0,0)"><path fill="none" stroke="rgb(0,0,0)" id="_CA748879-9C05-4758-B221-5F3CBC18145A?shapeType=BORDER&amp;renderType=STROKE" paint-order="fill stroke markers" d=" M 0 0 L 1434 0 L 1434 628 L 0 628 L 0 0 Z Z" stroke-miterlimit="10" stroke-width="0.5" stroke-dasharray=""/></g><g transform="matrix(1,0,0,1,1.1546319456101628e-13,628)"><g transform="matrix(-1.8369701987210297e-16,-1,1,-1.8369701987210297e-16,0,0)"><text fill="#000000" stroke="none" font-family="Open Sans" font-size="12pt" font-style="normal" font-weight="normal" text-decoration="normal" x="314" y="12" text-anchor="middle" dominant-baseline="alphabetic" id="_CA748879-9C05-4758-B221-5F3CBC18145Aundefined">                                                             HR Department                                                              </text><path fill="none" stroke="none"/><text fill="none" stroke="#393f44" font-family="Open Sans" font-size="12pt" font-style="normal" font-weight="normal" text-decoration="normal" x="314" y="12" text-anchor="middle" dominant-baseline="alphabetic" stroke-miterlimit="10" stroke-dasharray="">                                                             HR Department                                                              </text></g><g><path fill="none" stroke="black" id="_CA748879-9C05-4758-B221-5F3CBC18145Aundefined" paint-order="fill stroke markers" d=" M 0 0 L 0 0" stroke-miterlimit="10" stroke-opacity="0.1" stroke-dasharray=""/></g></g></g><g id="_48328966-E415-4A1A-8489-EACBAA894020" bpmn2nodeid="_48328966-E415-4A1A-8489-EACBAA894020" transform="matrix(1,0,0,1,307,654)"><g><path fill="none" stroke="none"/></g><g transform="matrix(1,0,0,1,0,0)"><path fill="#f2f2f2" stroke="none" id="_48328966-E415-4A1A-8489-EACBAA894020?shapeType=BACKGROUND" paint-order="stroke fill markers" d=" M 0 0 L 649 0 L 649 275 L 0 275 L 0 0 Z Z"/></g><g transform="matrix(1,0,0,1,0,0)"><path fill="none" stroke="#000000" id="_48328966-E415-4A1A-8489-EACBAA894020?shapeType=BORDER&amp;renderType=STROKE" paint-order="fill stroke markers" d=" M 0 0 L 649 0 L 649 275 L 0 275 L 0 0 Z Z" stroke-miterlimit="10" stroke-width="0.5" stroke-dasharray=""/></g><g transform="matrix(1,0,0,1,5.062616992290714e-14,275)"><g transform="matrix(-1.8369701987210297e-16,-1,1,-1.8369701987210297e-16,0,0)"><text fill="#000000" stroke="none" font-family="Open Sans" font-size="12pt" font-style="normal" font-weight="normal" text-decoration="normal" x="137.5" y="12" text-anchor="middle" dominant-baseline="alphabetic" id="_48328966-E415-4A1A-8489-EACBAA894020undefined">                 Top management                  </text><path fill="none" stroke="none"/><text fill="none" stroke="#393f44" font-family="Open Sans" font-size="12pt" font-style="normal" font-weight="normal" text-decoration="normal" x="137.5" y="12" text-anchor="middle" dominant-baseline="alphabetic" stroke-miterlimit="10" stroke-dasharray="">                 Top management                  </text></g><g><path fill="none" stroke="black" id="_48328966-E415-4A1A-8489-EACBAA894020undefined" paint-order="fill stroke markers" d=" M 0 0 L 0 0" stroke-miterlimit="10" stroke-opacity="0.1" stroke-dasharray=""/></g></g></g><g transform="matrix(1,0,0,1,307,23)"/><g transform="matrix(1,0,0,1,307,654)"/></g></g></svg>